<svg id="Layer_1" data-name="Layer 1" xmlns="http://www.w3.org/2000/svg" viewBox="0 0 267.15 275.71"><defs><style>.cls-1{fill:#2d0d02;}.cls-2{fill:#542d0e;}.cls-3{fill:#350e03;}.cls-4{fill:#fc7e05;}.cls-5{fill:#fcaa2c;}</style></defs><title>fire</title><polygon class="cls-1" points="228.4 272.47 18.07 196.02 25.94 149.69 241.84 227.53 228.4 272.47"/><ellipse class="cls-1" cx="24.55" cy="173.09" rx="24.55" ry="23.4"/><ellipse class="cls-1" cx="237.06" cy="251.55" rx="25.34" ry="24.16"/><circle class="cls-2" cx="237.9" cy="251.85" r="18.76"/><polygon class="cls-3" points="24.26 228.53 232.87 147.48 257.46 187.52 43.76 271.19 24.26 228.53"/><ellipse class="cls-3" cx="308.16" cy="234.3" rx="24.55" ry="23.4" transform="translate(-143.1 195.74) rotate(-41.21)"/><ellipse class="cls-3" cx="96.59" cy="315.26" rx="25.34" ry="24.16" transform="translate(-248.83 76.41) rotate(-41.21)"/><circle class="cls-2" cx="30.7" cy="250.29" r="18.76"/><path class="cls-4" d="M119.27,239.53c6,28,49.77,57.32,87.87,56.21,32.47-.94,67.95-20.51,76-47.56,6.95-23.45-9.8-42.14,3.7-72.89,2.64-6,5.95-28.3,6.18-32.12.16-2.58-20.06-37.93-20.38-32.43-1.86,32-15.94,52.94-21.31,51.89-7.57-1.49-14.4-52.53-18.84-59.61-16.68-26.57-48.65-38.56-50.66-37.69s16.21,62,4.17,72.28c-9.56,8.16-45.86-79.22-38.91-37.07C157.15,161.71,102.13,159.85,119.27,239.53Z" transform="translate(-65.07 -65.29)"/><path class="cls-5" d="M143,250.06c4.11,15.13,34,31,60,30.42,22.18-.51,46.4-11.11,51.88-25.74,4.75-12.69-6.69-22.8,2.54-39.45,1.8-3.25,4.06-15.31,4.21-17.38.11-1.4-13.7-20.53-13.92-17.55-1.26,17.3-10.88,28.65-14.55,28.08-5.17-.81-9.83-28.43-12.86-32.26-11.39-14.37-33.22-20.86-34.59-20.39s11.06,33.56,2.84,39.11C182,199.32,157.21,152,162,174.84,168.84,207.94,131.27,206.93,143,250.06Z" transform="translate(-65.07 -65.29)"/></svg>