<svg id="Layer_1" data-name="Layer 1" xmlns="http://www.w3.org/2000/svg" viewBox="0 0 303.01 326.39"><defs><style>.cls-1{fill:#121e1d;}.cls-2,.cls-6,.cls-7{fill:none;}.cls-3{fill:#6d8008;stroke:#060700;stroke-width:12px;}.cls-3,.cls-4,.cls-6,.cls-7{stroke-miterlimit:10;}.cls-4{fill:#b4d7d4;}.cls-4,.cls-6,.cls-7{stroke:#020200;}.cls-4,.cls-7{stroke-width:3px;}.cls-5{fill:#330;}.cls-8{fill:#f5880d;}.cls-9{fill:#314701;}</style></defs><title>logo2</title><circle class="cls-1" cx="180.01" cy="203.39" r="123"/><line class="cls-2" y1="2.6" x2="285.71"/><path class="cls-3" d="M376.64,321.05" transform="translate(-88.32 -324.95)"/><path class="cls-3" d="M102.61,321.05" transform="translate(-88.32 -324.95)"/><path class="cls-4" d="M182.67,302" transform="translate(-88.32 -324.95)"/><path class="cls-5" d="M3.91,322.35" transform="translate(-88.32 -324.95)"/><path class="cls-6" d="M178.33,273.33" transform="translate(-88.32 -324.95)"/><path class="cls-6" d="M77.83,308.91" transform="translate(-88.32 -324.95)"/><path class="cls-6" d="M41.47,489.43" transform="translate(-88.32 -324.95)"/><path class="cls-7" d="M181.67,305.33" transform="translate(-88.32 -324.95)"/><path class="cls-7" d="M182.51,299.33" transform="translate(-88.32 -324.95)"/><circle class="cls-8" cx="167.76" cy="166.47" r="85.58"/><path class="cls-6" d="M191.57,588.26" transform="translate(-88.32 -324.95)"/><path class="cls-6" d="M178.21,605.34" transform="translate(-88.32 -324.95)"/><polygon class="cls-9" points="217.97 264.84 152.68 265.04 184.41 218.34 168.85 218.34 217.77 137.48 217.97 264.84"/><polygon class="cls-9" points="217.38 264.84 282.68 265.04 250.94 218.34 266.5 218.34 217.58 137.48 217.38 264.84"/><rect class="cls-5" x="198.25" y="264.59" width="38.57" height="38.23"/></svg>