<svg id="Layer_1" data-name="Layer 1" xmlns="http://www.w3.org/2000/svg" viewBox="0 0 564 322"><defs><style>.cls-1,.cls-5,.cls-6{fill:none;}.cls-2{fill:#6d8008;stroke:#060700;stroke-width:12px;}.cls-2,.cls-3,.cls-5,.cls-6{stroke-miterlimit:10;}.cls-3{fill:#b4d7d4;}.cls-3,.cls-5,.cls-6{stroke:#020200;}.cls-3,.cls-6{stroke-width:3px;}.cls-4{fill:#330;}.cls-7{fill:#1c2602;}</style></defs><title>mountain</title><line class="cls-1" x1="81.32" y1="185.55" x2="367.04" y2="182.95"/><path class="cls-2" d="M376.64,321.05" transform="translate(-7 -142)"/><path class="cls-2" d="M102.61,321.05" transform="translate(-7 -142)"/><path class="cls-3" d="M182.67,302" transform="translate(-7 -142)"/><path class="cls-4" d="M3.91,322.35" transform="translate(-7 -142)"/><path class="cls-5" d="M178.33,273.33" transform="translate(-7 -142)"/><path class="cls-5" d="M77.83,308.91" transform="translate(-7 -142)"/><path class="cls-5" d="M41.47,489.43" transform="translate(-7 -142)"/><path class="cls-6" d="M181.67,305.33" transform="translate(-7 -142)"/><path class="cls-6" d="M182.51,299.33" transform="translate(-7 -142)"/><path class="cls-5" d="M191.57,588.26" transform="translate(-7 -142)"/><path class="cls-5" d="M178.21,605.34" transform="translate(-7 -142)"/><polygon class="cls-7" points="564 0 517 21 423 107 274 210 215 185 165 212 0 102 0 322 564 322 564 0"/></svg>