<svg id="Layer_1" data-name="Layer 1" xmlns="http://www.w3.org/2000/svg" viewBox="0 0 340.45 428.49"><defs><style>.cls-1,.cls-4{fill:none;}.cls-2{fill:#6d8008;stroke:#060700;stroke-width:12px;}.cls-2,.cls-4{stroke-miterlimit:10;}.cls-3{fill:#330;}.cls-4{stroke:#020200;}.cls-5{fill:#a8a458;}</style></defs><title>sign</title><line class="cls-1" y1="2.6" x2="285.71"/><path class="cls-2" d="M376.64,321.05" transform="translate(-88.32 -324.95)"/><path class="cls-2" d="M102.61,321.05" transform="translate(-88.32 -324.95)"/><path class="cls-3" d="M3.91,322.35" transform="translate(-88.32 -324.95)"/><path class="cls-4" d="M181.83,263.91" transform="translate(-88.32 -324.95)"/><path class="cls-4" d="M132.48,484.69" transform="translate(-88.32 -324.95)"/><path class="cls-4" d="M85.73,544.43" transform="translate(-88.32 -324.95)"/><line class="cls-1" x1="54.73" y1="166.15" x2="340.45" y2="163.55"/><path class="cls-2" d="M431.37,484.6" transform="translate(-88.32 -324.95)"/><path class="cls-2" d="M157.34,484.6" transform="translate(-88.32 -324.95)"/><rect class="cls-3" x="146.94" y="94.72" width="50.65" height="333.77"/><polygon class="cls-5" points="337.85 229.78 6.67 229.78 17.07 193.42 6.67 160.95 15.77 134.98 6.67 106.41 337.85 106.41 330.06 138.88 337.85 172.64 330.06 207.71 337.85 229.78"/></svg>