<svg id="Layer_1" data-name="Layer 1" xmlns="http://www.w3.org/2000/svg" viewBox="0 0 285.71 224.39"><defs><style>.cls-1,.cls-5,.cls-6{fill:none;}.cls-2{fill:#6d8008;stroke:#060700;stroke-width:12px;}.cls-2,.cls-3,.cls-5,.cls-6{stroke-miterlimit:10;}.cls-3{fill:#b4d7d4;}.cls-3,.cls-5,.cls-6{stroke:#020200;}.cls-3,.cls-6{stroke-width:3px;}.cls-4{fill:#330;}.cls-7{fill:#fbcc38;}</style></defs><title>sun</title><line class="cls-1" y1="2.6" x2="285.71"/><path class="cls-2" d="M376.64,321.05" transform="translate(-88.32 -324.95)"/><path class="cls-2" d="M102.61,321.05" transform="translate(-88.32 -324.95)"/><path class="cls-3" d="M182.67,302" transform="translate(-88.32 -324.95)"/><path class="cls-3" d="M224,575.33" transform="translate(-88.32 -324.95)"/><path class="cls-3" d="M77.33,545.33" transform="translate(-88.32 -324.95)"/><path class="cls-4" d="M3.91,322.35" transform="translate(-88.32 -324.95)"/><path class="cls-5" d="M178.33,273.33" transform="translate(-88.32 -324.95)"/><path class="cls-5" d="M220.79,573" transform="translate(-88.32 -324.95)"/><path class="cls-5" d="M77.83,308.91" transform="translate(-88.32 -324.95)"/><path class="cls-5" d="M41.47,489.43" transform="translate(-88.32 -324.95)"/><path class="cls-6" d="M181.67,305.33" transform="translate(-88.32 -324.95)"/><path class="cls-6" d="M222.33,573.33" transform="translate(-88.32 -324.95)"/><path class="cls-6" d="M182.51,299.33" transform="translate(-88.32 -324.95)"/><path class="cls-6" d="M77.67,541.33" transform="translate(-88.32 -324.95)"/><circle class="cls-7" cx="183.68" cy="158.72" r="65.67"/></svg>