<svg id="Layer_1" data-name="Layer 1" xmlns="http://www.w3.org/2000/svg" viewBox="0 0 406.83 288.75"><defs><style>.cls-1,.cls-5,.cls-6{fill:none;}.cls-2{fill:#6d8008;stroke:#060700;stroke-width:12px;}.cls-2,.cls-3,.cls-5,.cls-6{stroke-miterlimit:10;}.cls-3{fill:#b4d7d4;}.cls-3,.cls-5,.cls-6{stroke:#020200;}.cls-3,.cls-6{stroke-width:3px;}.cls-4{fill:#330;}</style></defs><title>tentblue</title><line class="cls-1" x1="13.1" y1="37.75" x2="298.82" y2="35.15"/><path class="cls-2" d="M376.64,321.05" transform="translate(-75.22 -289.79)"/><path class="cls-2" d="M102.61,321.05" transform="translate(-75.22 -289.79)"/><polygon class="cls-3" points="405.11 220.21 146.44 286.87 108.44 9.54 366.44 1.54 405.11 220.21"/><polygon class="cls-3" points="2.11 255.54 148.78 285.54 107.44 12.21 2.11 255.54"/><path class="cls-4" d="M3.91,322.35" transform="translate(-75.22 -289.79)"/><path class="cls-5" d="M178.33,273.33" transform="translate(-75.22 -289.79)"/><path class="cls-5" d="M159.75,449.62" transform="translate(-75.22 -289.79)"/><path class="cls-5" d="M220.79,573" transform="translate(-75.22 -289.79)"/><path class="cls-5" d="M77.83,308.91" transform="translate(-75.22 -289.79)"/><path class="cls-5" d="M41.47,489.43" transform="translate(-75.22 -289.79)"/><path class="cls-6" d="M222.33,573.33C200,551,175,484.37,175.3,431.62c.37-73.62,6.14-84.83,6.37-126.29" transform="translate(-75.22 -289.79)"/><path class="cls-6" d="M77.67,541.33c55-38.66,67.33-52,82.66-95.33,9.69-27.38,22.4-105.21,22.18-146.67" transform="translate(-75.22 -289.79)"/></svg>