<svg id="Layer_1" data-name="Layer 1" xmlns="http://www.w3.org/2000/svg" viewBox="0 0 417.66 319.81"><defs><style>.cls-1,.cls-5,.cls-6{fill:none;}.cls-2{fill:#6d8008;stroke:#060700;stroke-width:12px;}.cls-2,.cls-3,.cls-5,.cls-6{stroke-miterlimit:10;}.cls-3,.cls-4{fill:#330;}.cls-3,.cls-5,.cls-6{stroke:#020200;}.cls-3,.cls-5{stroke-width:3px;}</style></defs><title>tent</title><line class="cls-1" x1="13.69" y1="70.95" x2="299.4" y2="68.35"/><path class="cls-2" d="M376.64,321.05" transform="translate(-74.63 -256.59)"/><path class="cls-2" d="M102.61,321.05" transform="translate(-74.63 -256.59)"/><polygon class="cls-3" points="415.95 242.99 147.87 317.91 105.9 2.12 372.45 1.5 415.95 242.99"/><polygon class="cls-3" points="2 289.63 144.87 317.91 103.86 6.41 2 289.63"/><path class="cls-4" d="M3.91,322.35" transform="translate(-74.63 -256.59)"/><path class="cls-5" d="M78.6,544.58c14.61-20.25,41.17-53.15,59-97,29.71-73.25,38-136.95,41.45-179.91" transform="translate(-74.63 -256.59)"/><path class="cls-6" d="M177.94,260" transform="translate(-74.63 -256.59)"/><path class="cls-6" d="M159.75,449.62" transform="translate(-74.63 -256.59)"/><path class="cls-6" d="M220.79,573" transform="translate(-74.63 -256.59)"/><path class="cls-6" d="M77.83,308.91" transform="translate(-74.63 -256.59)"/><path class="cls-6" d="M41.47,489.43" transform="translate(-74.63 -256.59)"/><path class="cls-5" d="M219,572.5c-22.31-22.32-35.56-70.57-42.36-122.88-10.24-78.72,1-144.25,1.19-185.71" transform="translate(-74.63 -256.59)"/></svg>